<svg width="210" height="99" viewBox="0 0 210 99" fill="none" xmlns="http://www.w3.org/2000/svg">
<path fill-rule="evenodd" clip-rule="evenodd" d="M139.857 0L209.551 48.7999L174.693 98.5809L105 49.781L139.857 0Z" fill="url(#paint0_linear_0_1)"/>
<path d="M149.142 60.9061C155.557 65.398 164.399 63.8389 168.891 57.4238C173.383 51.0087 171.824 42.1668 165.409 37.6749C158.993 33.183 150.152 34.7421 145.66 41.1572C141.168 47.5723 142.727 56.4141 149.142 60.9061Z" fill="url(#paint1_linear_0_1)"/>
<mask id="mask0_0_1" style="mask-type:luminance" maskUnits="userSpaceOnUse" x="143" y="35" width="29" height="29">
<path d="M149.142 60.9061C155.557 65.398 164.399 63.8389 168.891 57.4238C173.383 51.0087 171.824 42.1668 165.409 37.6749C158.993 33.183 150.152 34.7421 145.66 41.1572C141.168 47.5723 142.727 56.4141 149.142 60.9061Z" fill="white"/>
</mask>
<g mask="url(#mask0_0_1)">
<path fill-rule="evenodd" clip-rule="evenodd" d="M144.498 42.8165C145.638 48.2516 149.309 53.6041 156.113 50.9498C162.918 48.2955 169.555 52.9432 167.729 59.0832C165.903 65.2232 160.758 69.0394 160.758 69.0394L137.526 52.7727C137.526 52.7727 143.358 37.3814 144.498 42.8165Z" fill="url(#paint2_linear_0_1)"/>
</g>
<path opacity="0.75" fill-rule="evenodd" clip-rule="evenodd" d="M177.895 46.0343C177.945 45.4642 178.417 45.0398 179.003 45.0911L181.003 45.266C181.565 45.3152 181.981 45.815 181.931 46.3874L181.052 56.4308C181.002 57.0009 180.53 57.4253 179.943 57.374L177.944 57.1991C177.382 57.1499 176.966 56.6502 177.016 56.0777L177.895 46.0343ZM183.949 46.564C183.999 45.9938 184.471 45.5694 185.057 45.6207L187.057 45.7956C187.619 45.8449 188.035 46.3446 187.985 46.9171L187.106 56.9605C187.056 57.5306 186.584 57.955 185.997 57.9037L183.998 57.7288C183.436 57.6796 183.02 57.1798 183.07 56.6074L183.949 46.564ZM127.445 41.6205C127.494 41.0504 127.967 40.626 128.553 40.6773L130.552 40.8522C131.115 40.9014 131.531 41.4011 131.481 41.9736L130.602 52.017C130.552 52.5871 130.08 53.0115 129.493 52.9602L127.494 52.7853C126.931 52.7361 126.516 52.2363 126.566 51.6639L127.445 41.6205ZM133.499 42.1501C133.548 41.58 134.021 41.1556 134.607 41.2069L136.606 41.3818C137.169 41.431 137.585 41.9308 137.535 42.5032L136.656 52.5466C136.606 53.1168 136.134 53.5412 135.547 53.4899L133.548 53.315C132.985 53.2658 132.57 52.766 132.62 52.1935L133.499 42.1501ZM170.405 65.5193C170.924 65.2774 171.527 65.4743 171.776 66.0079L172.624 67.8267C172.863 68.3384 172.638 68.9483 172.117 69.1912L162.98 73.4519C162.461 73.6938 161.858 73.4969 161.609 72.9633L160.761 71.1446C160.522 70.6328 160.747 70.0229 161.268 69.7801L170.405 65.5193ZM172.973 71.0271C173.492 70.7852 174.096 70.9821 174.344 71.5157L175.193 73.3344C175.431 73.8461 175.206 74.4561 174.685 74.6989L165.548 78.9597C165.03 79.2015 164.426 79.0046 164.177 78.471L163.329 76.6523C163.09 76.1406 163.315 75.5307 163.836 75.2878L172.973 71.0271ZM149.002 19.6213C149.521 19.3794 150.125 19.5763 150.374 20.1099L151.222 21.9286C151.46 22.4404 151.235 23.0503 150.714 23.2931L141.577 27.5539C141.059 27.7957 140.455 27.5989 140.206 27.0653L139.358 25.2465C139.119 24.7348 139.344 24.1249 139.865 23.882L149.002 19.6213ZM151.571 25.1291C152.089 24.8872 152.693 25.0841 152.942 25.6177L153.79 27.4364C154.029 27.9481 153.804 28.558 153.283 28.8009L144.146 33.0616C143.627 33.3035 143.023 33.1066 142.774 32.573L141.926 30.7543C141.688 30.2426 141.913 29.6326 142.433 29.3898L151.571 25.1291Z" fill="url(#paint3_linear_0_1)"/>
<path fill-rule="evenodd" clip-rule="evenodd" d="M0 48.7999L69.6935 -2.29072e-06L104.551 49.781L34.8571 98.5809L0 48.7999Z" fill="url(#paint4_linear_0_1)"/>
<path fill-rule="evenodd" clip-rule="evenodd" d="M11.619 65.3936L81.3125 16.5937L92.9315 33.1874L23.238 81.9872L11.619 65.3936Z" fill="url(#paint5_linear_0_1)"/>
<path fill-rule="evenodd" clip-rule="evenodd" d="M23.238 81.9872L92.9315 33.1874L104.551 49.781L34.8571 98.5809L23.238 81.9872Z" fill="url(#paint6_linear_0_1)"/>
<path fill-rule="evenodd" clip-rule="evenodd" d="M0 48.7999L69.6935 -2.29072e-06L81.3125 16.5937L11.619 65.3936L0 48.7999Z" fill="url(#paint7_linear_0_1)"/>
<defs>
<linearGradient id="paint0_linear_0_1" x1="3624.53" y1="2439.99" x2="138.824" y2="7418.1" gradientUnits="userSpaceOnUse">
<stop stop-color="white"/>
<stop offset="1" stop-color="#F0F0F0"/>
</linearGradient>
<linearGradient id="paint1_linear_0_1" x1="1315.35" y1="842.873" x2="-311.312" y2="3165.99" gradientUnits="userSpaceOnUse">
<stop stop-color="#E01B41"/>
<stop offset="1" stop-color="#C51335"/>
</linearGradient>
<linearGradient id="paint2_linear_0_1" x1="1417.82" y1="928.842" x2="459.25" y2="2297.82" gradientUnits="userSpaceOnUse">
<stop stop-color="#0E4B9C"/>
<stop offset="1" stop-color="#053677"/>
</linearGradient>
<linearGradient id="paint3_linear_0_1" x1="2519.01" y1="1678.47" x2="214.888" y2="4969.1" gradientUnits="userSpaceOnUse">
<stop stop-color="#262626"/>
<stop offset="1" stop-color="#0D0D0D"/>
</linearGradient>
<linearGradient id="paint4_linear_0_1" x1="731.781" y1="-463.599" x2="1254.64" y2="283.117" gradientUnits="userSpaceOnUse">
<stop stop-color="white"/>
<stop offset="1" stop-color="#F0F0F0"/>
</linearGradient>
<linearGradient id="paint5_linear_0_1" x1="743.4" y1="-447.005" x2="917.686" y2="-198.1" gradientUnits="userSpaceOnUse">
<stop stop-color="#06A77C"/>
<stop offset="1" stop-color="#00966E"/>
</linearGradient>
<linearGradient id="paint6_linear_0_1" x1="755.019" y1="-430.412" x2="929.305" y2="-181.506" gradientUnits="userSpaceOnUse">
<stop stop-color="#E32E19"/>
<stop offset="1" stop-color="#D62612"/>
</linearGradient>
<linearGradient id="paint7_linear_0_1" x1="731.781" y1="-463.599" x2="906.067" y2="-214.694" gradientUnits="userSpaceOnUse">
<stop stop-color="white"/>
<stop offset="1" stop-color="#F0F0F0"/>
</linearGradient>
</defs>
</svg>
